<svg xmlns="http://www.w3.org/2000/svg" xmlns:xlink="http://www.w3.org/1999/xlink" viewBox="0,0,256,256" width="50px" height="50px"><g fill="#13b0eb" fill-rule="nonzero" stroke="none" stroke-width="1" stroke-linecap="butt" stroke-linejoin="miter" stroke-miterlimit="10" stroke-dasharray="" stroke-dashoffset="0" font-family="none" font-weight="none" font-size="none" text-anchor="none" style="mix-blend-mode: normal"><g transform="scale(5.12,5.12)"><path d="M14,4c-5.51133,0 -10,4.48867 -10,10v22c0,5.51133 4.48867,10 10,10h22c5.51133,0 10,-4.48867 10,-10v-22c0,-5.51133 -4.48867,-10 -10,-10zM14,6h22c4.43067,0 8,3.56933 8,8v22c0,4.43067 -3.56933,8 -8,8h-22c-4.43067,0 -8,-3.56933 -8,-8v-22c0,-4.43067 3.56933,-8 8,-8zM32,13c-3.16822,0 -5.90618,1.8576 -7.19922,4.54297c-0.87017,-0.33812 -1.80663,-0.54297 -2.80078,-0.54297c-3.87657,0 -7.03585,2.81047 -7.75977,6.48438c-2.45827,0.92803 -4.24023,3.24205 -4.24023,6.01563c0,3.21841 2.38445,5.8382 5.4668,6.3457c0.15961,0.10071 0.34447,0.15421 0.5332,0.1543h13c3.85433,0 7,-3.14567 7,-7c0,-0.35039 -0.03546,-0.69147 -0.08594,-1.02734c2.43835,-1.37379 4.08594,-3.98562 4.08594,-6.97266c0,-4.40644 -3.59356,-8 -8,-8zM32,15c3.32556,0 6,2.67444 6,6c0,2.09719 -1.0768,3.92591 -2.69727,4.99805c-1.08583,-2.22844 -3.33389,-3.78979 -5.95117,-3.92773c-0.57951,-1.44715 -1.55591,-2.69024 -2.79297,-3.58594c0.95191,-2.05333 3.01966,-3.48437 5.44141,-3.48437zM22,19c2.73184,0 5.01699,1.81635 5.75,4.29883c0.13131,0.4436 0.54973,0.73925 1.01172,0.71484c0.13193,-0.0068 0.20831,-0.01367 0.23828,-0.01367c2.77367,0 5,2.22633 5,5c0,2.77367 -2.22633,5 -5,5h-12.11328l0.10352,0.85547c-0.05617,-0.46862 -0.43232,-0.83417 -0.90234,-0.87695c-2.29509,-0.20894 -4.08789,-2.12098 -4.08789,-4.47852c0,-2.08346 1.40624,-3.81523 3.3125,-4.33594c0.39477,-0.10769 0.68412,-0.445 0.73047,-0.85156c0.34137,-2.99261 2.86477,-5.3125 5.95703,-5.3125z"></path></g></g></svg>